<svg width="369" height="91" viewBox="0 0 369 91" fill="none" xmlns="http://www.w3.org/2000/svg">
<path d="M76.3 58V16H92.68C96.36 16 99.5 16.58 102.1 17.74C104.7 18.9 106.7 20.58 108.1 22.78C109.5 24.98 110.2 27.6 110.2 30.64C110.2 33.68 109.5 36.3 108.1 38.5C106.7 40.66 104.7 42.34 102.1 43.54C99.5 44.7 96.36 45.28 92.68 45.28H79.6L82.3 42.46V58H76.3ZM82.3 43.06L79.6 40.06H92.5C96.34 40.06 99.24 39.24 101.2 37.6C103.2 35.96 104.2 33.64 104.2 30.64C104.2 27.64 103.2 25.32 101.2 23.68C99.24 22.04 96.34 21.22 92.5 21.22H79.6L82.3 18.22V43.06ZM137.622 58V51.28L137.322 50.02V38.56C137.322 36.12 136.602 34.24 135.162 32.92C133.762 31.56 131.642 30.88 128.802 30.88C126.922 30.88 125.082 31.2 123.282 31.84C121.482 32.44 119.962 33.26 118.722 34.3L116.322 29.98C117.962 28.66 119.922 27.66 122.202 26.98C124.522 26.26 126.942 25.9 129.462 25.9C133.822 25.9 137.182 26.96 139.542 29.08C141.902 31.2 143.082 34.44 143.082 38.8V58H137.622ZM127.182 58.36C124.822 58.36 122.742 57.96 120.942 57.16C119.182 56.36 117.822 55.26 116.862 53.86C115.902 52.42 115.422 50.8 115.422 49C115.422 47.28 115.822 45.72 116.622 44.32C117.462 42.92 118.802 41.8 120.642 40.96C122.522 40.12 125.042 39.7 128.202 39.7H138.282V43.84H128.442C125.562 43.84 123.622 44.32 122.622 45.28C121.622 46.24 121.122 47.4 121.122 48.76C121.122 50.32 121.742 51.58 122.982 52.54C124.222 53.46 125.942 53.92 128.142 53.92C130.302 53.92 132.182 53.44 133.782 52.48C135.422 51.52 136.602 50.12 137.322 48.28L138.462 52.24C137.702 54.12 136.362 55.62 134.442 56.74C132.522 57.82 130.102 58.36 127.182 58.36ZM153.741 58V26.2H159.261V34.84L158.721 32.68C159.601 30.48 161.081 28.8 163.161 27.64C165.241 26.48 167.801 25.9 170.841 25.9V31.48C170.601 31.44 170.361 31.42 170.121 31.42C169.921 31.42 169.721 31.42 169.521 31.42C166.441 31.42 164.001 32.34 162.201 34.18C160.401 36.02 159.501 38.68 159.501 42.16V58H153.741ZM195.337 58V51.28L195.037 50.02V38.56C195.037 36.12 194.317 34.24 192.877 32.92C191.477 31.56 189.357 30.88 186.517 30.88C184.637 30.88 182.797 31.2 180.997 31.84C179.197 32.44 177.677 33.26 176.437 34.3L174.037 29.98C175.677 28.66 177.637 27.66 179.917 26.98C182.237 26.26 184.657 25.9 187.177 25.9C191.537 25.9 194.897 26.96 197.257 29.08C199.617 31.2 200.797 34.44 200.797 38.8V58H195.337ZM184.897 58.36C182.537 58.36 180.457 57.96 178.657 57.16C176.897 56.36 175.537 55.26 174.577 53.86C173.617 52.42 173.137 50.8 173.137 49C173.137 47.28 173.537 45.72 174.337 44.32C175.177 42.92 176.517 41.8 178.357 40.96C180.237 40.12 182.757 39.7 185.917 39.7H195.997V43.84H186.157C183.277 43.84 181.337 44.32 180.337 45.28C179.337 46.24 178.837 47.4 178.837 48.76C178.837 50.32 179.457 51.58 180.697 52.54C181.937 53.46 183.657 53.92 185.857 53.92C188.017 53.92 189.897 53.44 191.497 52.48C193.137 51.52 194.317 50.12 195.037 48.28L196.177 52.24C195.417 54.12 194.077 55.62 192.157 56.74C190.237 57.82 187.817 58.36 184.897 58.36ZM225.616 58.36C222.216 58.36 219.216 57.66 216.616 56.26C214.056 54.86 212.056 52.94 210.616 50.5C209.216 48.06 208.516 45.26 208.516 42.1C208.516 38.94 209.196 36.14 210.556 33.7C211.956 31.26 213.856 29.36 216.256 28C218.696 26.6 221.436 25.9 224.476 25.9C227.556 25.9 230.276 26.58 232.636 27.94C234.996 29.3 236.836 31.22 238.156 33.7C239.516 36.14 240.196 39 240.196 42.28C240.196 42.52 240.176 42.8 240.136 43.12C240.136 43.44 240.116 43.74 240.076 44.02H213.016V39.88H237.076L234.736 41.32C234.776 39.28 234.356 37.46 233.476 35.86C232.596 34.26 231.376 33.02 229.816 32.14C228.296 31.22 226.516 30.76 224.476 30.76C222.476 30.76 220.696 31.22 219.136 32.14C217.576 33.02 216.356 34.28 215.476 35.92C214.596 37.52 214.156 39.36 214.156 41.44V42.4C214.156 44.52 214.636 46.42 215.596 48.1C216.596 49.74 217.976 51.02 219.736 51.94C221.496 52.86 223.516 53.32 225.796 53.32C227.676 53.32 229.376 53 230.896 52.36C232.456 51.72 233.816 50.76 234.976 49.48L238.156 53.2C236.716 54.88 234.916 56.16 232.756 57.04C230.636 57.92 228.256 58.36 225.616 58.36ZM261.334 58.36C258.254 58.36 255.494 57.68 253.054 56.32C250.654 54.96 248.754 53.06 247.354 50.62C245.954 48.18 245.254 45.34 245.254 42.1C245.254 38.86 245.954 36.04 247.354 33.64C248.754 31.2 250.654 29.3 253.054 27.94C255.494 26.58 258.254 25.9 261.334 25.9C264.014 25.9 266.434 26.5 268.594 27.7C270.754 28.9 272.474 30.7 273.754 33.1C275.074 35.5 275.734 38.5 275.734 42.1C275.734 45.7 275.094 48.7 273.814 51.1C272.574 53.5 270.874 55.32 268.714 56.56C266.554 57.76 264.094 58.36 261.334 58.36ZM261.814 53.32C263.814 53.32 265.614 52.86 267.214 51.94C268.854 51.02 270.134 49.72 271.054 48.04C272.014 46.32 272.494 44.34 272.494 42.1C272.494 39.82 272.014 37.86 271.054 36.22C270.134 34.54 268.854 33.24 267.214 32.32C265.614 31.4 263.814 30.94 261.814 30.94C259.774 30.94 257.954 31.4 256.354 32.32C254.754 33.24 253.474 34.54 252.514 36.22C251.554 37.86 251.074 39.82 251.074 42.1C251.074 44.34 251.554 46.32 252.514 48.04C253.474 49.72 254.754 51.02 256.354 51.94C257.954 52.86 259.774 53.32 261.814 53.32ZM272.674 58V49.42L273.034 42.04L272.434 34.66V13.48H278.194V58H272.674ZM303.013 70C300.093 70 297.253 69.58 294.493 68.74C291.773 67.94 289.553 66.78 287.833 65.26L290.593 60.82C292.073 62.1 293.893 63.1 296.053 63.82C298.213 64.58 300.473 64.96 302.833 64.96C306.593 64.96 309.353 64.08 311.113 62.32C312.873 60.56 313.753 57.88 313.753 54.28V47.56L314.353 41.26L314.053 34.9V26.2H319.513V53.68C319.513 59.28 318.113 63.4 315.313 66.04C312.513 68.68 308.413 70 303.013 70ZM302.293 56.68C299.213 56.68 296.453 56.04 294.013 54.76C291.613 53.44 289.693 51.62 288.253 49.3C286.853 46.98 286.153 44.3 286.153 41.26C286.153 38.18 286.853 35.5 288.253 33.22C289.693 30.9 291.613 29.1 294.013 27.82C296.453 26.54 299.213 25.9 302.293 25.9C305.013 25.9 307.493 26.46 309.733 27.58C311.973 28.66 313.753 30.34 315.073 32.62C316.433 34.9 317.113 37.78 317.113 41.26C317.113 44.7 316.433 47.56 315.073 49.84C313.753 52.12 311.973 53.84 309.733 55C307.493 56.12 305.013 56.68 302.293 56.68ZM302.953 51.64C305.073 51.64 306.953 51.2 308.593 50.32C310.233 49.44 311.513 48.22 312.433 46.66C313.393 45.1 313.873 43.3 313.873 41.26C313.873 39.22 313.393 37.42 312.433 35.86C311.513 34.3 310.233 33.1 308.593 32.26C306.953 31.38 305.073 30.94 302.953 30.94C300.833 30.94 298.933 31.38 297.253 32.26C295.613 33.1 294.313 34.3 293.353 35.86C292.433 37.42 291.973 39.22 291.973 41.26C291.973 43.3 292.433 45.1 293.353 46.66C294.313 48.22 295.613 49.44 297.253 50.32C298.933 51.2 300.833 51.64 302.953 51.64ZM344.679 58.36C341.279 58.36 338.279 57.66 335.679 56.26C333.119 54.86 331.119 52.94 329.679 50.5C328.279 48.06 327.579 45.26 327.579 42.1C327.579 38.94 328.259 36.14 329.619 33.7C331.019 31.26 332.919 29.36 335.319 28C337.759 26.6 340.499 25.9 343.539 25.9C346.619 25.9 349.339 26.58 351.699 27.94C354.059 29.3 355.899 31.22 357.219 33.7C358.579 36.14 359.259 39 359.259 42.28C359.259 42.52 359.239 42.8 359.199 43.12C359.199 43.44 359.179 43.74 359.139 44.02H332.079V39.88H356.139L353.799 41.32C353.839 39.28 353.419 37.46 352.539 35.86C351.659 34.26 350.439 33.02 348.879 32.14C347.359 31.22 345.579 30.76 343.539 30.76C341.539 30.76 339.759 31.22 338.199 32.14C336.639 33.02 335.419 34.28 334.539 35.92C333.659 37.52 333.219 39.36 333.219 41.44V42.4C333.219 44.52 333.699 46.42 334.659 48.1C335.659 49.74 337.039 51.02 338.799 51.94C340.559 52.86 342.579 53.32 344.859 53.32C346.739 53.32 348.439 53 349.959 52.36C351.519 51.72 352.879 50.76 354.039 49.48L357.219 53.2C355.779 54.88 353.979 56.16 351.819 57.04C349.699 57.92 347.319 58.36 344.679 58.36Z" fill="white"/>
<path fill-rule="evenodd" clip-rule="evenodd" d="M44.9052 14L41.8141 15.7522L38.9767 17.5044C38.1151 18.0197 37.2534 18.535 36.3415 19.1019L33.9087 20.5964C33.9589 20.9572 34.0606 21.3694 34.1109 21.7817C34.2629 22.6578 34.3646 23.5854 34.416 24.5131C34.416 24.8223 34.4663 25.183 34.4663 25.4922C34.4663 25.6984 34.5166 25.9044 34.5166 26.0591C36.4421 25.0799 38.3687 24.1008 40.3445 23.1732C42.6757 22.0394 45.0069 20.9572 47.3883 19.8749C47.0341 18.7927 46.6284 17.7105 46.1725 16.6283C45.7668 15.8037 45.3611 14.9276 44.9052 14ZM30.6153 22.5547L28.5367 23.8431L26.6112 25.1315C25.3953 25.9044 24.2297 26.7291 23.0641 27.5021C23.0641 27.8628 23.0641 28.2235 22.9624 28.6358C22.9121 28.8935 22.9121 29.1511 22.8619 29.4089C22.8619 29.5634 22.8619 29.7181 22.8104 29.8727C22.7099 30.7488 22.6082 31.6764 22.4562 32.604C23.7738 31.8309 25.041 31.1095 26.3586 30.3881C27.8282 29.5634 29.2977 28.7389 30.8176 27.9659V26.4198C30.8176 25.956 30.8176 25.4922 30.7673 25.0284C30.7673 24.2554 30.6656 23.5339 30.6153 22.7609V22.5547ZM14.8547 33.4286C16.7802 31.9856 18.7057 30.5941 20.6313 29.2027C20.581 29.5634 20.5307 29.9241 20.4793 30.285V30.3881C20.429 30.7488 20.3787 31.1095 20.3273 31.5218C20.277 31.934 20.1753 32.3463 20.125 32.8101C20.0747 33.2739 19.973 33.7378 19.8713 34.2016L18.1995 35.2323L16.6283 36.2629C15.6649 36.8814 14.6525 37.5514 13.6892 38.2213C13.7909 37.809 13.9428 37.3452 14.0434 36.9329C14.1451 36.5206 14.2468 36.1084 14.3474 35.6961C14.5508 34.923 14.7027 34.15 14.8547 33.4286ZM17.8441 37.8605L19.5674 36.8814V36.9329C19.4657 37.4483 19.3137 37.9636 19.1617 38.479C18.8577 39.6127 18.5538 40.798 18.1995 41.9318C18.0475 42.5501 17.8441 43.1686 17.6419 43.8386C16.4763 44.3538 15.209 44.9723 14.1451 45.4877C13.0812 46.003 12.0173 46.5698 11.0037 47.0852C11.206 46.4668 11.4083 45.8999 11.6117 45.333C11.8139 44.7661 12.0173 44.2509 12.1693 43.6839C12.5236 42.7048 12.8275 41.6741 13.1315 40.695C14.7028 39.7158 16.274 38.7882 17.8441 37.8605ZM16.7802 47.1883C15.5644 47.6521 14.3988 48.1159 13.2332 48.6313C12.0676 49.1466 11.1043 49.6104 10.0404 50.1258C9.17878 52.4963 8.31717 54.8669 7.45555 57.2376C7.25329 57.8045 7.05102 58.3713 6.79733 58.9382C6.64535 59.2474 6.54365 59.6081 6.39167 59.9689C6.89904 59.8143 7.45555 59.6596 7.96292 59.5051C9.12851 59.1958 10.2427 58.9382 11.4083 58.6806C12.0173 58.5775 12.6755 58.4228 13.2835 58.3197C13.6389 57.2891 13.9428 56.2584 14.2971 55.2277C14.6011 54.2485 14.905 53.2694 15.209 52.3418C15.513 51.4142 15.7666 50.5381 16.0203 49.7134C16.2226 48.992 16.4763 48.2706 16.6785 47.549L16.7802 47.1883ZM29.9057 43.117C29.7537 44.0962 29.6017 45.1269 29.4497 46.2091C29.2977 47.1367 29.1458 48.0128 28.9926 48.992L28.8921 49.6104C28.6887 50.7957 28.4864 52.0325 28.2327 53.321C27.9802 54.6093 27.7265 56.0008 27.4225 57.3921C27.0671 57.3921 26.6626 57.3921 26.3072 57.3921C25.5976 57.3921 24.8879 57.3921 24.2297 57.3921C23.2161 57.3921 22.2025 57.4436 21.3409 57.4952C20.4793 57.5467 19.5674 57.5983 18.7572 57.6498C17.9458 57.7014 17.1356 57.8045 16.3746 57.9075C17.0339 55.7946 17.6419 53.6817 18.2498 51.5687C18.7572 49.765 19.2634 47.9613 19.7193 46.1576C20.429 45.8999 21.1889 45.6423 21.9488 45.3846C22.7602 45.1269 23.5201 44.8692 24.3817 44.6116C26.2055 44.0962 28.0304 43.5809 29.9057 43.117ZM40.6988 25.9044C43.1819 24.8223 45.6651 23.7916 48.1997 22.7609H48.2499C48.7059 24.41 49.1116 26.1106 49.4155 27.8113C49.8715 29.9241 50.2269 32.0371 50.5308 34.2016C48.8579 34.5623 47.1346 34.9746 45.6651 35.3354C44.1955 35.6961 42.7774 36.0568 41.4084 36.366C39.0269 36.9845 36.6455 37.6544 34.2629 38.3244C34.3143 37.7059 34.3646 36.9845 34.3646 36.366C34.3646 36.1084 34.416 35.7991 34.416 35.5415V35.3354C34.4663 34.5623 34.5166 33.7378 34.5166 33.0679V30.8003V28.7389C35.3782 28.3266 36.2398 27.9659 37.1517 27.5536L37.4557 27.399C38.3687 26.9867 39.2806 26.626 40.1925 26.2137L40.6988 25.9044ZM45.9691 39.8703C47.5917 39.6127 49.3138 39.3035 51.1388 39.0458C51.2907 40.4372 51.4427 41.7256 51.5947 43.3232C51.7467 44.9208 51.8484 46.5698 52.0004 48.1675C52.101 49.9712 52.2529 51.8264 52.3546 53.6817C52.4563 55.6915 52.5066 57.7529 52.6083 59.9174C50.2772 59.5566 48.0477 59.2474 46.121 58.9897C44.1955 58.732 42.27 58.5259 40.6485 58.3197C39.027 58.1652 37.4054 58.0106 35.9861 57.8559C34.568 57.7014 33.2504 57.6498 31.9329 57.5983C32.3888 54.7639 32.7933 51.981 33.1487 49.1466C33.4527 46.8276 33.7064 44.5085 33.9589 42.1894C35.0742 41.9318 36.2398 41.674 37.5071 41.4164C38.7733 41.1588 40.0406 40.9011 41.5101 40.6434C42.6757 40.4372 43.8916 40.2312 45.2091 39.9734C45.4125 39.9219 45.7165 39.9219 45.9691 39.8703Z" fill="white"/>
</svg>
